<svg xmlns="http://www.w3.org/2000/svg" viewBox="0 0 200 200" width="200" height="200"><path d="M100 11.8c-48.7 0-88.3 39.5-88.3 88.3s39.5 88.3 88.3 88.3 88.3-39.5 88.3-88.3-39.6-88.3-88.3-88.3zm0 165.6c-42.8 0-77.4-34.6-77.4-77.4S57.2 22.6 100 22.6s77.4 34.6 77.4 77.4-34.6 77.4-77.4 77.4z" fill="currentColor"/><circle cx="100" cy="57.3" r="17" fill="currentColor"/><path d="M149.9 83.5c-.3-3.2-3.1-5.6-6.3-5.4-12.9.9-42.9 3.1-43.6 3.1-.7 0-30.7-2.2-43.6-3.1-3.2-.2-6 2.2-6.3 5.4-.3 3.3 2.2 6.2 5.5 6.4l29.8 2.2c1.5.1 2.7 1.4 2.7 3v21c0 .4-.1.9-.3 1.3L72 150.9c-1.4 3-.1 6.6 2.9 8 2.9 1.4 6.4.2 7.9-2.8l17.2-34.4 17.2 34.4c1.5 2.9 5 4.1 7.9 2.8 3-1.4 4.3-5 2.9-8l-15.8-33.6c-.2-.4-.3-.8-.3-1.3V95c0-1.6 1.2-2.8 2.7-3l29.8-2.2c3.4-.1 5.8-3 5.5-6.3z" fill="currentColor"/></svg>