<svg xmlns="http://www.w3.org/2000/svg" height="35" width="36"><title>Alert</title><path d="M35.44 17.5c0 3.1-.79 6-2.36 8.7s-3.69 4.8-6.36 6.4-5.58 2.3-8.72 2.3-6.05-.7-8.72-2.3-4.79-3.7-6.36-6.4S.56 20.6.56 17.5s.79-6 2.36-8.7S6.61 4 9.28 2.4 14.86.1 18 .1s6.05.7 8.72 2.3 4.79 3.7 6.36 6.4 2.36 5.6 2.36 8.7zM18 21c-.89 0-1.65.3-2.29 1-.63.6-.94 1.4-.94 2.3 0 .8.31 1.6.94 2.2.64.7 1.4 1 2.29 1s1.65-.3 2.29-1c.63-.6.94-1.4.94-2.2 0-.9-.31-1.7-.94-2.3-.64-.7-1.4-1-2.29-1zM14.91 9.4l.56 9.6c0 .2.08.3.24.5.17.2.37.3.6.3h3.38c.23 0 .43-.1.6-.3.16-.2.24-.3.24-.5l.56-9.6c0-.3-.08-.5-.24-.7-.17-.1-.37-.2-.6-.2h-4.5c-.23 0-.43.1-.6.2-.16.2-.24.4-.24.7z" fill="#fff" fill-rule="evenodd"/></svg>