<svg id="development" xmlns="http://www.w3.org/2000/svg" viewBox="0 0 200 176.1"><title>Development</title><path class="st2" d="M112.4 13.7L79 146c-.4 1.6.6 3.2 2.1 3.6l5.8 1.5c1.6.4 3.3-.5 3.7-2.2L124 16.6c.3-1.4-.5-2.7-1.8-3.1l-6.7-1.8c-1.3-.2-2.7.7-3.1 2zM65.3 34.8l-3.8-3.9c-1.2-1.2-3.1-1.2-4.3 0L6 82.1c-1.4 1.4-1.4 3.7 0 5.1l51.5 51.5c1.4 1.4 3.7 1.4 5.1 0l3.4-3.4c1.4-1.4 1.4-3.7 0-5.1L20.5 84.6l44.8-44.8c1.4-1.4 1.4-3.6 0-5zM133.8 39.8l44.8 44.8-45.6 45.5c-1.4 1.4-1.4 3.7 0 5.1l3.4 3.4c1.4 1.4 3.7 1.4 5.1 0L193 87.1c1.4-1.4 1.4-3.7 0-5.1l-51.2-51.2c-1.2-1.2-3.1-1.2-4.3 0l-3.8 3.9c-1.3 1.5-1.3 3.7.1 5.1z" fill="currentColor"/></svg>