<svg width="24" height="24" xmlns="http://www.w3.org/2000/svg" viewBox="0 0 24 22.2"><title>Print</title><path d="M23.2 10c-.5-.5-1.2-.8-2-.8h-.9V5.5c0-.4-.1-.8-.3-1.3-.2-.5-.4-.8-.7-1.1L17.1 1c-.3-.3-.6-.5-1.1-.7-.4-.2-.8-.3-1.2-.3H5.1c-.4 0-.7.1-1 .4-.3.3-.4.6-.4 1v7.8h-.9c-.8 0-1.4.3-2 .8-.5.6-.8 1.2-.8 2v6c0 .1 0 .2.1.3.1.1.2.1.3.1h3.2v2.3c0 .4.1.7.4 1 .3.3.6.4 1 .4h13.8c.4 0 .7-.1 1-.4.3-.3.4-.6.4-1v-2.3h3.2c.1 0 .2 0 .3-.1.3-.1.3-.2.3-.3v-6c0-.8-.3-1.4-.8-2zm-4.7 10.3h-13v-3.7h12.9v3.7zm0-9.2h-13V1.8h9.2v2.3c0 .4.1.7.4 1 .3.3.6.4 1 .4h2.3l.1 5.6zm3.4 1.5c-.2.2-.4.3-.6.3-.3 0-.5-.1-.6-.3-.2-.2-.3-.4-.3-.6 0-.3.1-.5.3-.6.2-.2.4-.3.6-.3.2 0 .5.1.6.3.2.2.3.4.3.6s-.1.5-.3.6z"/></svg>