<svg id="product" xmlns="http://www.w3.org/2000/svg" viewBox="0 0 200 200"><title>Product</title><path d="M194 12.5H5.9c-3.3 0-5.9 2.6-5.9 5.9v35.5c0 3.2 2.6 5.9 5.9 5.9h5.9v123c0 3.2 2.6 5.9 5.9 5.9h164.7c3.2 0 5.9-2.6 5.9-5.9V59.7h5.9c3.2 0 5.9-2.6 5.9-5.9V18.4c-.1-3.3-2.8-5.9-6.1-5.9zm-17.5 164.4h-153V59.8h153v117.1zm11.8-129.1H11.7V24.5h176.6v23.3z" fill="currentColor"/><path d="M69.8 111.8h60.5c12.3 0 22.3-9 22.3-20s-10-20-22.3-20H69.8c-12.3 0-22.3 9-22.3 20s10 20 22.3 20zm-2.9-28l66-.1c4.1 0 7.5 4.3 7.5 8s-3.4 8.2-7.5 8.2l-66 .1c-4.1 0-7.5-4.5-7.5-8.2s3.4-8 7.5-8z" fill="currentColor"/></svg>