<svg id="ux" xmlns="http://www.w3.org/2000/svg" viewBox="0 0 200 200"><title>User experience</title><path d="M135 6.9c0-3.2-2.6-5.9-5.9-5.9H23.7c-3.2 0-5.9 2.6-5.9 5.9v164.7c0 3.2 2.6 5.9 5.9 5.9h33.5c1.4 8.8 10.7 22.4 10.7 22.4h98.9c19.2-25.2 15-75.2 15-75.2 0-9.6-7.8-17.6-17.6-17.6-2.3 0-4.4.5-6.5 1.2-2-7.5-8.9-12.9-16.9-12.9-2 0-4 .3-5.9 1l.1-89.5zM93.2 52.6c-9.2 0-16.7 7.5-16.7 16.7v48.3c-10.9 2.3-20.6 11.6-22.5 24.1H31.9V38.4h89v57.3c-1.7-.6-3.6-.9-5.6-.9-1.9 0-3.9.3-5.6.9V69.3c.2-9.2-7.3-16.7-16.5-16.7zM121 12.7v11.1H31.9V12.7H121zM31.1 165.3v-11.7h22.3c.2 4 .6 7.8 1.3 11.7H31.1zm109-58.4c3.3 0 5.9 2.6 5.9 5.8v11.5c0 3.2 2.6 5.8 5.9 5.8 3.3 0 5.9-2.6 5.9-5.8s2.6-5.8 5.9-5.8c3.3 0 5.9 2.6 5.9 5.8V144c0 .3-1.4 29.8-9.8 43.9H73.4c-10.7-21.3-9.6-41.9-9.6-42.1.5-6.9 5.2-12.8 11.7-15v16.6c0 3.2 2.6 5.8 5.9 5.8s5.9-2.6 5.9-5.8V68.9c0-3.2 2.6-5.8 5.9-5.8s5.9 2.6 5.9 5.8v55.2c0 3.2 2.6 5.8 5.9 5.8 3.3 0 5.9-2.6 5.9-5.8v-11.5c0-3.2 2.6-5.8 5.9-5.8 3.3 0 5.9 2.6 5.9 5.8v11.5c0 3.2 2.6 5.8 5.9 5.8s5.9-2.6 5.9-5.8v-11.5c-.3-3.1 2.4-5.7 5.6-5.7z" fill="currentColor"/></svg>