<svg id="visual" xmlns="http://www.w3.org/2000/svg" viewBox="0 0 200 200"><title>Visual Design</title><path d="M116.3 16.5c-22.6.8-42.7 11.9-56.7 24.1-.2-1.7-.3-3.2-.5-4.8-1-8.2-2.2-14.7-3.6-19.4-.9-3.2-3.1-10.7-9.3-10.7-6.2 0-8.4 7.5-9.3 10.7-1.4 4.6-2.6 11.2-3.6 19.4-2.1 16.5-3.2 38.4-3.2 61.6 0 15.1.5 30.2 1.5 43.3-4.2 4-6.9 9.5-6.9 15.7v11.1c0 9.3-13.8 13.3-20.4 17.3-.2.1 14.6 7 31.4 5.3 17.6-1.7 31.8-15.8 31.8-33.6 0-6.2-2.6-11.8-6.9-15.7.4-5.2.7-10.9.9-16.5 11 2.1 18.8 6.3 23.2 12.4 5.7 8 4.2 17.3 3.6 20-2 9 3.3 18.1 12.3 19.7 5.2 1 10.3 1.5 15.6 1.5 18.1 0 36.1-6.2 51.1-18.5 18.8-15.6 29.5-38.1 29.5-62.1.1-45.2-39.4-82.3-80.5-80.8zM40.8 96.7c0-20.3.8-39.9 2.5-55.3.9-8.6 1.9-14.4 2.8-18.3.8 4 1.9 9.7 2.8 18.3 1.7 15.3 2.6 35 2.6 55.3v5.3H40.8v-5.3zm10.5 16.8c-.2 7.6-.5 14.9-.9 21.9-1.4-.3-2.8-.4-4.3-.4s-2.9.1-4.3.4c-.4-7-.7-14.3-.8-21.9h10.3zm-22.8 66.9c3-2.8 7.9-7.3 7.9-11.1l.3-11.5c0-6 3.4-10.8 9.3-10.8s10.1 5 9.5 10.9c-2.2 22.5-27 22.5-27 22.5zM160 150.2c-16.1 13.4-34.9 18.6-55.5 14.6-3-.6-4.5-3.9-3.9-6.9 1-4.8 1.9-17-6.1-28.3-6.3-8.9-17.8-15-32.5-17.4.1-5.2.2-15.3.2-15.5 2.1 2.4 4.9 4.2 8 5 8.6 2.3 17.4-2.8 19.7-11.4 2.3-8.6-2.8-17.4-11.4-19.7-6.5-1.8-12.8.7-16.7 5.4-.2-7.6-.5-14.3-1-21.2C73.1 42 92.9 28.4 120.1 28.4s64.8 25.8 64.8 68.3c0 20.7-8.6 40.1-24.9 53.5zM69.3 84.8c.7-2.8 3.8-4.6 6.6-3.8 2.8.7 4.6 3.8 3.8 6.6-.7 2.8-3.8 4.6-6.6 3.8-2.9-.8-4.5-3.7-3.8-6.6z" fill="currentColor"/><path d="M123.3 119.7c-9.3 2.5-14.8 12.1-12.3 21.4 2.5 9.4 12 14.8 21.4 12.3 9.3-2.5 14.8-12.1 12.3-21.4-2.5-9.2-12.1-14.8-21.4-12.3zm5.6 21.1c-2.3.6-4.7-.7-5.3-3.1-.5-2.3.8-4.7 3.1-5.3 2.3-.6 4.7.8 5.3 3.1.6 2.3-.8 4.7-3.1 5.3zM172.1 98.2c-2.2-8-10.5-12.8-18.5-10.7-8 2.2-12.8 10.5-10.7 18.5 2.2 8.1 10.4 12.8 18.5 10.7 8-2.2 12.8-10.5 10.7-18.5zm-13.7 7.6c-2 .5-4.1-.6-4.6-2.7-.5-2 .7-4.1 2.7-4.6s4.1.7 4.6 2.7-.7 4-2.7 4.6zM146 77.1c7.5-2 12-9.8 10-17.3s-9.8-12-17.3-10-12 9.8-10 17.3c2 7.6 9.7 12 17.3 10zm-4.6-17c1.9-.5 3.8.6 4.3 2.5s-.6 3.8-2.5 4.3-3.8-.6-4.3-2.5c-.4-1.8.6-3.8 2.5-4.3zM116.5 51.6c-2-7.4-9.6-11.7-16.9-9.8s-11.7 9.6-9.8 16.9c2 7.4 9.5 11.7 16.9 9.8 7.4-1.9 11.8-9.6 9.8-16.9zM104 58.5c-1.8.5-3.7-.6-4.2-2.5-.4-1.8.6-3.7 2.5-4.2 1.8-.5 3.7.6 4.2 2.5.4 1.9-.7 3.8-2.5 4.2z" fill="currentColor"/></svg>